<svg xmlns="http://www.w3.org/2000/svg" width="22" height="22" viewBox="0 0 22 22" fill="none"><path fill-rule="evenodd" clip-rule="evenodd" d="M0.166931 11.0003C0.166931 5.01724 5.01718 0.166992 11.0003 0.166992C12.7279 0.166992 14.3639 0.57217 15.8157 1.29367C16.3515 1.55993 16.57 2.21013 16.3037 2.74592C16.0374 3.28172 15.3872 3.50022 14.8515 3.23394C13.6926 2.65801 12.3859 2.33366 11.0003 2.33366C6.2138 2.33366 2.3336 6.21386 2.3336 11.0003C2.3336 15.7868 6.2138 19.667 11.0003 19.667C15.7868 19.667 19.6669 15.7868 19.6669 11.0003C19.6669 10.674 19.649 10.3523 19.614 10.0361C19.5482 9.4413 19.9771 8.90592 20.5717 8.84027C21.1664 8.77448 21.7018 9.20329 21.7675 9.79794C21.8112 10.1931 21.8336 10.5943 21.8336 11.0003C21.8336 16.9834 16.9833 21.8337 11.0003 21.8337C5.01718 21.8337 0.166931 16.9834 0.166931 11.0003ZM21.5163 2.65096C21.9393 3.07403 21.9393 3.75996 21.5163 4.18303L11.7663 13.933C11.3433 14.3561 10.6573 14.3561 10.2342 13.933L6.98423 10.683C6.56117 10.26 6.56117 9.57401 6.98423 9.15097C7.40731 8.7279 8.09323 8.7279 8.5163 9.15097L11.0003 11.6349L19.9842 2.65096C20.4073 2.22789 21.0933 2.22789 21.5163 2.65096Z" fill="url(#paint0_linear_84_2026)"></path><defs><linearGradient id="paint0_linear_84_2026" x1="0.166931" y1="11.0003" x2="21.8336" y2="11.0003" gradientUnits="userSpaceOnUse"><stop stop-color="#4400E7"></stop><stop offset="1" stop-color="#7B00FE"></stop></linearGradient></defs></svg>