<svg xmlns="http://www.w3.org/2000/svg" width="52" height="52" viewBox="0 0 52 52" fill="none"><path d="M47.3515 20.0909H40.497V6.38182C40.497 3.30909 37.9758 0.787878 34.903 0.787878H29.3879H25.3697H21.5091H15.8364C12.7636 0.787878 10.2424 3.30909 10.2424 6.38182V10.7152C5.35759 11.1091 1.49698 15.2061 1.49698 20.1697C1.49698 25.1333 5.35759 29.3091 10.2424 29.703V45.6182C10.2424 48.6909 12.7636 51.2121 15.8364 51.2121H34.8243C37.897 51.2121 40.4182 48.6909 40.4182 45.6182V37.0303H47.2727C49.0061 37.0303 50.4243 35.6121 50.4243 33.8788V23.2424C50.503 21.5091 49.0849 20.0909 47.3515 20.0909ZM11.2667 26.7091C10.7939 26.7091 10.4788 26.3939 10.4788 25.9212V24.9758H8.82425C7.80001 24.9758 7.01213 24.1879 7.01213 23.1636C7.01213 22.7697 7.32728 22.3758 7.80001 22.3758C8.27274 22.3758 8.58789 22.7697 8.58789 23.1636C8.58789 23.3212 8.66668 23.4 8.82425 23.4H13.3939C13.5515 23.4 13.6303 23.3212 13.6303 23.1636V21.1939C13.6303 21.0364 13.5515 20.9576 13.3939 20.9576H8.82425C7.80001 20.9576 7.01213 20.1697 7.01213 19.1455V17.2545C7.01213 16.2303 7.80001 15.4424 8.82425 15.4424H10.4788V14.497C10.4788 14.0242 10.7939 13.7091 11.2667 13.7091C11.7394 13.7091 12.0546 14.0242 12.0546 14.497V15.4424H13.3939C14.4182 15.4424 15.2061 16.2303 15.2061 17.2545C15.2061 17.6485 14.8121 18.0424 14.4182 18.0424C14.0243 18.0424 13.6303 17.6485 13.6303 17.2545C13.6303 17.097 13.5515 17.0182 13.3939 17.0182H8.82425C8.66668 17.0182 8.58789 17.097 8.58789 17.2545V19.1455C8.58789 19.303 8.66668 19.3818 8.82425 19.3818H13.3939C14.4182 19.3818 15.2061 20.1697 15.2061 21.1939V23.1636C15.2061 24.1879 14.4182 24.9758 13.3939 24.9758H12.0546V25.9212C12.0546 26.3939 11.6606 26.7091 11.2667 26.7091ZM27.7333 47.5879H23.0061C22.6121 47.5879 22.2182 47.1939 22.2182 46.8C22.2182 46.4061 22.6121 46.0121 23.0061 46.0121H27.7333C28.2061 46.0121 28.5212 46.4061 28.5212 46.8C28.5212 47.1939 28.1273 47.5879 27.7333 47.5879ZM38.8424 42.6242H11.8182V29.703C16.703 29.3091 20.5636 25.2121 20.5636 20.1697C20.5636 15.1273 16.7818 11.1091 11.8182 10.7152V7.72121H38.8424V20.0909H27.7333C26 20.0909 24.5818 21.5091 24.5818 23.2424V33.8788C24.5818 35.6121 26 37.0303 27.7333 37.0303H38.8424V42.6242ZM48.9273 33.8788C48.9273 34.7455 48.2182 35.4545 47.3515 35.4545H27.7333C26.8667 35.4545 26.1576 34.7455 26.1576 33.8788V25.8424H48.9273V33.8788Z" fill="#7B00FE"></path><path d="M38.9215 28.1272H28.8366C28.4427 28.1272 28.0487 28.5212 28.0487 28.9151C28.0487 29.3091 28.4427 29.703 28.8366 29.703H38.9215C39.3154 29.703 39.7093 29.3091 39.7093 28.9151C39.7093 28.5212 39.3154 28.1272 38.9215 28.1272Z" fill="#7B00FE"></path><path d="M29.861 31.1213C29.4671 31.1213 29.0732 31.5152 29.0732 31.9091V32.8546C29.0732 33.2485 29.4671 33.6425 29.861 33.6425C30.255 33.6425 30.6489 33.2485 30.6489 32.8546V31.9091C30.6489 31.5152 30.3338 31.1213 29.861 31.1213Z" fill="#7B00FE"></path><path d="M32.3815 31.1213C31.9876 31.1213 31.5937 31.5152 31.5937 31.9091V32.8546C31.5937 33.2485 31.9876 33.6425 32.3815 33.6425C32.7755 33.6425 33.1694 33.2485 33.1694 32.8546V31.9091C33.1694 31.5152 32.7755 31.1213 32.3815 31.1213Z" fill="#7B00FE"></path><path d="M34.8239 31.1213C34.43 31.1213 34.036 31.5152 34.036 31.9091V32.8546C34.036 33.2485 34.43 33.6425 34.8239 33.6425C35.2179 33.6425 35.6118 33.2485 35.6118 32.8546V31.9091C35.6118 31.5152 35.2966 31.1213 34.8239 31.1213Z" fill="#7B00FE"></path></svg>