<svg xmlns="http://www.w3.org/2000/svg" width="52" height="52" viewBox="0 0 52 52" fill="none"><path d="M33.0251 7.4297C32.0333 6.72149 30.9388 6.16943 29.7798 5.79274C28.5591 5.3973 27.2836 5.19723 26.0004 5.19994C23.4831 5.18892 21.0259 5.96888 18.9758 7.4297C13.847 11.0858 12.483 18.1277 15.7731 23.4977L20.5633 31.3201L24.8044 38.2418C24.9298 38.4473 25.1059 38.6171 25.3158 38.7349C25.5257 38.8528 25.7623 38.9146 26.003 38.9146C26.2437 38.9146 26.4804 38.8528 26.6903 38.7349C26.9002 38.6171 27.0763 38.4473 27.2016 38.2418L31.4396 31.3216L36.2299 23.4993C39.5204 18.1277 38.1539 11.0858 33.0251 7.4297ZM26.0004 26.3343C24.1851 26.3343 22.4105 25.796 20.9011 24.7874C19.3917 23.7788 18.2152 22.3453 17.5205 20.6681C16.8259 18.9909 16.6441 17.1454 16.9983 15.365C17.3525 13.5845 18.2267 11.949 19.5104 10.6654C20.7941 9.38179 22.4296 8.50766 24.2101 8.15356C25.9906 7.79947 27.8361 7.98131 29.5133 8.67609C31.1904 9.37087 32.6239 10.5474 33.6323 12.0568C34.6408 13.5663 35.1791 15.3409 35.179 17.1563C35.1788 19.5905 34.2117 21.925 32.4904 23.6462C30.7691 25.3674 28.4346 26.3343 26.0004 26.3343Z" fill="#06607C"></path><path d="M24.0948 21.4125C23.7289 21.4122 23.378 21.2667 23.1193 21.008L20.2224 18.1116C20.0942 17.9834 19.9926 17.8313 19.9233 17.6639C19.854 17.4965 19.8183 17.3171 19.8184 17.1359C19.8184 16.7699 19.9638 16.419 20.2226 16.1603C20.4814 15.9016 20.8324 15.7562 21.1983 15.7563C21.5643 15.7563 21.9152 15.9017 22.1739 16.1605L24.0948 18.0814L28.8726 13.3037C29.0007 13.1755 29.1528 13.0739 29.3202 13.0046C29.4876 12.9353 29.6671 12.8996 29.8483 12.8997C30.0295 12.8997 30.2089 12.9354 30.3763 13.0048C30.5437 13.0741 30.6958 13.1758 30.8239 13.3039C30.952 13.4321 31.0536 13.5842 31.1229 13.7516C31.1922 13.919 31.2279 14.0984 31.2279 14.2796C31.2278 14.4608 31.1921 14.6402 31.1228 14.8076C31.0534 14.975 30.9517 15.1271 30.8236 15.2552L25.0703 21.008C24.8116 21.2668 24.4607 21.4124 24.0948 21.4125Z" fill="#06607C"></path><path d="M32.5278 31.5312L32.0198 32.3632L31.0931 33.8754C32.7966 34.2285 34.3384 34.7537 35.6062 35.4182C37.5385 36.4317 38.6924 37.6901 38.6924 38.7847C38.6924 39.8793 37.5385 41.1377 35.6062 42.1507C33.1201 43.4523 29.6184 44.2 25.9997 44.2C22.381 44.2 18.8793 43.4522 16.3938 42.1491C14.4614 41.1362 13.3076 39.8778 13.3076 38.7832C13.3076 37.6886 14.4614 36.4302 16.3938 35.4167C17.6615 34.7521 19.2017 34.2269 20.9063 33.8738L19.6755 31.8646L19.4716 31.5312C14.2909 32.8151 10.707 35.58 10.707 38.7832C10.707 43.212 17.5539 46.8 25.9997 46.8C34.4455 46.8 41.2924 43.212 41.2924 38.7832C41.2924 35.58 37.7085 32.8151 32.5278 31.5312Z" fill="#06607C"></path><path d="M14.3478 38.7832C14.3478 39.3396 15.2162 40.3577 16.8766 41.2272C19.2166 42.4554 22.5446 43.1595 26 43.1595C29.4554 43.1595 32.7813 42.4554 35.1234 41.2272C36.7838 40.3572 37.6522 39.339 37.6522 38.7832C37.6522 38.2273 36.7832 37.2086 35.1234 36.3392C33.852 35.672 32.2696 35.152 30.5141 34.8192L28.0857 38.7847C27.8674 39.142 27.561 39.4372 27.1958 39.642C26.8306 39.8468 26.4189 39.9544 26.0003 39.9544C25.5816 39.9544 25.1699 39.8468 24.8047 39.642C24.4396 39.4372 24.1331 39.142 23.9148 38.7847L21.4859 34.8192C19.7298 35.152 18.148 35.672 16.8766 36.3381C15.2168 37.2086 14.3478 38.2273 14.3478 38.7832Z" fill="#06607C"></path></svg>