<svg xmlns="http://www.w3.org/2000/svg" width="52" height="52" viewBox="0 0 52 52" fill="none"><path fill-rule="evenodd" clip-rule="evenodd" d="M36.8245 31.775L33.8914 39.634C33.4876 40.7161 32.8566 41.7113 32.0824 40.8913C31.8521 40.6474 31.6564 40.3202 31.6929 39.9606L32.3396 33.5826C32.3435 33.5451 32.3656 33.5148 32.4003 33.4999L36.6894 31.6466C36.7275 31.6301 36.7693 31.6375 36.7995 31.6661C36.8295 31.6947 36.839 31.7361 36.8245 31.775ZM31.2625 47.9065V50.0912C31.2625 50.1985 31.3527 50.2887 31.46 50.2887H33.8962C34.0035 50.2887 34.0937 50.1984 34.0937 50.0912V47.9065C34.0937 47.8506 34.0481 47.8052 33.9924 47.8052H31.3639C31.308 47.8052 31.2625 47.8507 31.2625 47.9065ZM17.9054 47.9065V50.0912C17.9054 50.1985 17.9956 50.2887 18.1029 50.2887H20.5391C20.6464 50.2887 20.7366 50.1984 20.7366 50.0912V47.9065C20.7366 47.8506 20.691 47.8052 20.6353 47.8052H18.0068C17.9508 47.8052 17.9054 47.8507 17.9054 47.9065ZM50.7894 15.3399C49.4249 12.0518 41.9036 13.1672 38.1703 13.9282C38.1281 13.9368 38.0972 13.9693 38.0905 14.0118C38.0839 14.0545 38.1034 14.0947 38.1411 14.1158C38.5495 14.3451 38.9108 14.6498 39.2061 15.0118C39.2303 15.0413 39.2658 15.0543 39.3033 15.0473C41.703 14.5986 43.8103 14.3868 45.5107 14.4283C50.2199 14.5433 50.9215 16.3582 47.6686 19.7614C46.779 20.692 45.6267 21.6836 44.251 22.7063C44.221 22.7286 44.2063 22.7627 44.2108 22.7997C44.2153 22.8368 44.2375 22.8664 44.272 22.8809L45.4538 23.3803C45.4884 23.3949 45.5253 23.3902 45.555 23.3673C46.7661 22.4359 47.7974 21.5287 48.6208 20.6672C50.5607 18.6379 51.3892 16.785 50.7894 15.3399ZM43.0978 23.5302C42.6324 23.3907 42.1616 23.3277 41.691 23.3412C40.595 23.3726 39.8901 23.7717 38.9693 24.2353C38.937 24.2517 38.9014 24.2501 38.8706 24.2311C38.8398 24.2121 38.8225 24.1809 38.8225 24.1447V18.2566C38.8225 16.2203 37.1589 14.5567 35.1226 14.5567H16.8765C14.8403 14.5567 13.1767 16.2203 13.1767 18.2566V36.0346C13.1767 36.0836 13.1428 36.1248 13.0947 36.1342C11.5017 36.4444 10.0289 36.6537 8.70854 36.757C5.23838 37.0288 2.92126 36.6096 2.42434 35.4123C2.01209 34.4191 2.89526 32.8867 4.75415 31.0668C6.4506 29.4058 8.9283 27.5752 11.9784 25.7331C12.0097 25.7143 12.0274 25.6829 12.0274 25.6464V24.3527C12.0274 24.3153 12.0088 24.2833 11.9763 24.2648C11.9439 24.2463 11.9068 24.2466 11.8745 24.2656C8.47226 26.2763 5.70565 28.2964 3.83282 30.13C1.5731 32.3425 0.567007 34.3684 1.20962 35.9168C1.95291 37.7078 4.74396 38.3877 8.8063 38.0696C11.9279 37.8251 16.2744 36.723 20.3323 35.4625C20.4144 35.4371 20.4981 35.4165 20.5782 35.3859C21.8743 34.8896 19.177 31.4573 18.5009 30.3628C18.4831 30.3339 18.4806 30.3012 18.4939 30.27C18.5072 30.2388 18.5324 30.2179 18.5656 30.2106C18.5995 30.2033 18.6357 30.2064 18.6783 30.2286L22.6513 32.3068C23.5343 32.7685 24.4432 33.0635 25.3316 32.6142L40.3718 25.0067C41.2541 24.5604 42.1796 24.5342 43.1012 24.9279L45.4816 25.9447C45.6907 26.034 45.6895 26.3267 45.4825 26.413C35.0439 30.9234 24.5044 36.4749 13.259 38.6203C13.2108 38.6294 13.1766 38.6706 13.1766 38.7197V43.1322C13.1766 45.1684 14.8402 46.8321 16.8764 46.8321H35.1224C37.1586 46.8321 38.8223 45.1686 38.8223 43.1322V30.7916C38.8223 30.7503 38.8455 30.7149 38.8834 30.6986L46.0023 27.6227C47.266 27.0781 47.2633 25.2765 45.9962 24.7353L44.5499 24.1175C44.5492 24.1173 44.5487 24.117 44.5481 24.1168L43.1065 23.5335C43.1036 23.5322 43.1009 23.5312 43.0978 23.5302ZM30.2346 13.3132V6.66578C30.2346 6.6378 30.2446 6.61378 30.2644 6.59402C30.2842 6.57426 30.3083 6.56438 30.3363 6.56448C30.8072 6.56604 31.1995 6.56479 31.5997 6.1646C31.8462 5.91812 31.9992 5.57742 31.9992 5.20208V3.07341C31.9992 2.32284 31.3876 1.71122 30.6372 1.71122H21.3621C20.6116 1.71122 19.9999 2.32284 19.9999 3.07341V5.20208C19.9999 5.95254 20.6116 6.56417 21.3621 6.56417H21.6633C21.7192 6.56417 21.7646 6.60972 21.7646 6.66546V13.3131C21.7646 13.369 21.8102 13.4144 21.8659 13.4144H22.9809C23.0367 13.4144 23.0822 13.3689 23.0822 13.3131V6.66546C23.0822 6.60962 23.1277 6.56417 23.1835 6.56417H28.8154C28.8712 6.56417 28.9167 6.60972 28.9167 6.66546V13.3131C28.9167 13.369 28.9622 13.4144 29.018 13.4144H30.133C30.189 13.4145 30.2346 13.3691 30.2346 13.3132ZM23.1652 25.7945C23.1637 25.7935 23.1624 25.7925 23.1608 25.7916C22.2238 25.1961 22.624 24.5027 23.7278 24.8118C23.7291 24.8122 23.7302 24.8124 23.7316 24.8127L32.9561 27.0239C32.9984 27.034 33.0283 27.0679 33.0332 27.111C33.0381 27.1542 33.0166 27.1939 32.9776 27.2132L28.4336 29.4714C28.3993 29.4885 28.3611 29.4855 28.3298 29.4633L23.1652 25.7945Z" fill="#FFA407"></path></svg>